<svg xmlns="http://www.w3.org/2000/svg" viewBox="0 0 64 64" role="img" aria-label="JavaScript">
  <rect width="64" height="64" rx="14" fill="#f7df1e"/>
  <path fill="#161616" d="M20 46c2.1 3.4 4.8 5 9 5 5.8 0 9.4-3.1 9.4-8.8V20h-6.2v22c0 2.3-1 3.2-3.1 3.2-1.8 0-3.1-.9-4.2-2.8L20 46Zm20.3-.6c2 3.8 5.6 5.6 10.4 5.6 5.4 0 9-2.8 9-7.5 0-4.3-2.5-6.2-7-8.1l-1.5-.6c-2.3-1-3.3-1.6-3.3-3.1 0-1.2 1-2.1 2.5-2.1 1.7 0 2.8.7 3.8 2.5l4.7-3c-1.9-3.4-4.6-4.7-8.5-4.7-5.3 0-8.7 3.4-8.7 7.6 0 4.7 2.8 6.8 7 8.6l1.5.6c2.4 1 3.8 1.7 3.8 3.3 0 1.4-1.3 2.4-3.4 2.4-2.5 0-4-1.3-5.1-3.2l-5.2 3.1Z"/>
</svg>
